<svg width="102" height="81" viewBox="0 0 102 81" fill="none" xmlns="http://www.w3.org/2000/svg">
<g id="_&#208;&#161;&#208;&#187;&#208;&#190;&#208;&#185;_1" clip-path="url(#clip0_3035_146)">
<g id="Group">
<path id="Vector" d="M10.8768 37.0918C10.8205 36.9219 10.8205 36.8086 10.8205 36.6387C10.8205 36.6765 10.8018 36.7142 10.7642 36.752V36.9786C10.7267 37.0163 10.708 37.0541 10.708 37.0918L6.83846 55.6001C6.83846 56.0532 7.11988 56.4497 7.57015 56.4497H14.0193C14.4696 56.4497 14.7463 56.0532 14.7463 55.6001L10.8768 37.0918ZM14.5212 67.9058V67.3394C16.7069 67.3394 17.1571 67.396 15.4733 59.2111L15.2482 58.0263C15.023 57.5165 14.6291 57.0114 14.1272 57.0114H7.45289C6.95103 57.0114 6.55704 57.5212 6.33191 58.0263L6.10677 59.2111C4.42296 67.396 6.66961 67.3394 9.24459 67.3394V67.9058H0V67.3394C2.41082 67.3394 3.70065 67.396 5.38447 59.2111L9.98565 37.0871C10.9378 32.5745 9.92937 28.9588 7.23714 28.9588H5.55332V28.3971H18.0014V28.9588H17.0492C16.266 28.9588 15.6468 28.9588 15.0887 29.0154C13.1282 29.3553 13.1282 31.1585 14.3617 37.0871L18.9582 59.2111C20.642 67.396 21.2564 67.3394 23.4421 67.3394V67.9058H14.5259H14.5212Z" fill="white"/>
<path id="Vector_2" d="M25.6279 67.3395C27.8136 67.3395 29.6663 67.3962 29.6663 59.2112V37.0872C29.6663 28.9023 27.8136 28.9589 25.6279 28.9589V28.3925H35.4963V28.9589C33.8125 28.9589 32.5227 29.6339 33.0855 31.4418L45.421 59.5463C45.7587 60.1694 46.0401 60.3913 46.2606 60.3913C46.5983 60.3913 46.7671 59.8815 46.7671 59.2065V37.0825C46.7671 28.8975 43.6809 28.9542 41.4952 28.9542V28.3878H51.3636V28.9542C49.1779 28.9542 47.3253 28.8975 47.3253 37.0825V59.2065C47.3253 67.3914 49.1779 67.3348 51.3636 67.3348V67.9012H41.4952V67.3348H41.6078C43.2916 67.3348 44.5814 66.6598 44.0186 64.8519L31.6831 36.804C31.3454 36.1809 31.0124 35.9591 30.7873 35.9591C30.4496 35.9591 30.2244 36.4122 30.2244 37.0872V59.2112C30.2244 67.3962 33.3106 67.3395 35.4963 67.3395V67.9059H25.6279V67.3395Z" fill="white"/>
<path id="Vector_3" d="M64.4306 37.092C64.3743 36.922 64.3743 36.8087 64.3743 36.6388C64.3743 36.6766 64.3556 36.7143 64.3181 36.7521V36.9787C64.2805 37.0164 64.2618 37.0542 64.2618 37.092L60.3923 55.6002C60.3923 56.0533 60.6737 56.4498 61.1193 56.4498H67.5684C68.0187 56.4498 68.2954 56.0533 68.2954 55.6002L64.4259 37.092H64.4306ZM68.075 67.9059V67.3395C70.2607 67.3395 70.7109 67.3962 69.0271 59.2112L68.802 58.0264C68.5769 57.5166 68.1829 57.0115 67.681 57.0115H61.0067C60.5002 57.0115 60.1109 57.5213 59.8857 58.0264L59.6606 59.2112C57.9768 67.3962 60.2234 67.3395 62.7984 67.3395V67.9059H53.5444V67.3395C55.9552 67.3395 57.2451 67.3962 58.9289 59.2112L63.5254 37.0872C64.4775 32.5746 63.4691 28.9589 60.7769 28.9589H59.0931V28.3972H71.5411V28.9589H70.589C69.8057 28.9589 69.1866 28.9589 68.6284 29.0156C66.6679 29.3554 66.6679 31.1586 67.9014 37.0872L72.4979 59.2112C74.1818 67.3962 74.7962 67.3395 76.9819 67.3395V67.9059H68.0656H68.075Z" fill="white"/>
<path id="Vector_4" d="M88.5435 28.4019V28.9684C86.3578 28.9684 85.0117 28.9117 88.0369 37.0967L90.3915 43.4738L92.5772 37.0967C95.4382 28.9117 93.1963 28.9684 90.6166 28.9684V28.4019H99.8143V28.9684C97.4035 28.9684 96.1137 28.9117 93.2526 37.0967L90.7292 44.3753L96.1699 59.2159C99.1999 67.4009 99.8143 67.3442 102.005 67.3442V67.9107H90.3962V67.3442C93.0321 67.3442 95.4992 67.4009 92.4693 59.2159L88.9375 49.5677L85.5745 59.2159C82.7135 67.4009 84.9554 67.3442 87.5351 67.3442V67.9107H78.3374V67.3442C80.7482 67.3442 82.038 67.4009 84.8991 59.2159L88.5998 48.6047L84.3363 37.092C81.3064 28.907 80.6919 28.9636 78.5063 28.9636V28.3972H88.5435V28.4019Z" fill="white"/>
</g>
<path id="Vector_5" d="M56.0024 10.597V20.25H99.8146V18.8009H57.4377V10.597H56.0024Z" fill="#D9A662"/>
<path id="Vector_6" d="M54.6328 7.08042H53.1929V20.2453H54.6328V7.08042Z" fill="#D9A662"/>
<path id="Vector_7" d="M51.8232 0H50.3833V20.2453H51.8232V0Z" fill="#D9A662"/>
<path id="Vector_8" d="M49.0137 4.95629H47.5737V20.25H49.0137V4.95629Z" fill="#D9A662"/>
<path id="Vector_9" d="M44.7642 12.5087V18.8009H0V20.25H46.2042V12.5087H44.7642Z" fill="#D9A662"/>
<g id="Group_2">
<path id="Vector_10" d="M18.5405 76.3175H20.1165C21.3875 76.3175 22.2599 77.2002 22.2599 78.5832C22.2599 79.9663 21.411 80.9339 20.1024 80.9339H18.5405V76.3175ZM19.0096 80.5185H20.0508C21.2046 80.5185 21.7628 79.6972 21.7628 78.6021C21.7628 77.6344 21.2562 76.7376 20.0508 76.7376H19.0096V80.5232V80.5185Z" fill="#D9A662"/>
<path id="Vector_11" d="M27.3255 78.7154H25.0132V80.5138H27.5506L27.485 80.9292H24.5488V76.3128H27.4381V76.7281H25.0132V78.2906H27.3255V78.7059V78.7154Z" fill="#D9A662"/>
<path id="Vector_12" d="M31.0493 80.9339L29.3608 76.3175H29.8627L30.7163 78.6823C30.9649 79.3715 31.2276 80.1031 31.3261 80.5044H31.3401C31.4386 80.1456 31.7294 79.3809 31.978 78.7059L32.8645 76.3175H33.3523L31.6028 80.9339H31.0493Z" fill="#D9A662"/>
<path id="Vector_13" d="M38.179 78.7154H35.8667V80.5138H38.4041L38.3385 80.9292H35.4023V76.3128H38.2916V76.7281H35.8667V78.2906H38.179V78.7059V78.7154Z" fill="#D9A662"/>
<path id="Vector_14" d="M40.585 76.3175H41.054V80.5138H43.4836L43.4085 80.9292H40.585V76.3128V76.3175Z" fill="#D9A662"/>
<path id="Vector_15" d="M49.2807 78.5974C49.2807 79.8624 48.5959 81 47.1654 81C45.8474 81 45.0923 79.9521 45.0923 78.6257C45.0923 77.2993 45.838 76.2514 47.2123 76.2514C48.4834 76.2514 49.276 77.2379 49.276 78.5974H49.2807ZM45.5895 78.6068C45.5895 79.6406 46.1382 80.5846 47.1889 80.5846C48.3192 80.5846 48.7836 79.65 48.7836 78.6068C48.7836 77.5636 48.2582 76.6715 47.1982 76.6715C46.0819 76.6715 45.5941 77.592 45.5941 78.6068H45.5895Z" fill="#D9A662"/>
<path id="Vector_16" d="M51.5698 76.3175H53.2536C54.1167 76.3175 54.7076 76.7989 54.7076 77.6297C54.7076 78.4605 54.1026 78.975 53.2114 78.975H52.0435V80.9339H51.5698V76.3175ZM52.0435 78.5596H53.2161C53.9056 78.5596 54.2152 78.2056 54.2152 77.6439C54.2152 77.0491 53.8212 76.7329 53.2396 76.7329H52.0435V78.5643V78.5596Z" fill="#D9A662"/>
<path id="Vector_17" d="M60.8985 78.8806C60.8985 77.9979 60.9078 77.1294 60.9266 76.6573H60.9031C60.7155 77.3371 59.8666 79.4753 59.3131 80.9339H58.8769C58.4548 79.7822 57.5824 77.389 57.3713 76.6526H57.3526C57.3854 77.1813 57.3995 78.2339 57.3995 79.0269V80.9339H56.9492V76.3175H57.6481C58.2297 77.8327 58.952 79.801 59.1161 80.3533H59.1302C59.2381 79.9663 60.0777 77.7902 60.6733 76.3175H61.3581V80.9339H60.8938V78.8806H60.8985Z" fill="#D9A662"/>
<path id="Vector_18" d="M66.743 78.7154H64.4306V80.5138H66.9681L66.9024 80.9292H63.9663V76.3128H66.8555V76.7281H64.4306V78.2906H66.743V78.7059V78.7154Z" fill="#D9A662"/>
<path id="Vector_19" d="M69.1489 80.9339V76.3175H69.8009C70.4904 77.4126 72.0569 79.8624 72.329 80.3628H72.3383C72.2961 79.7302 72.3008 79.0269 72.3008 78.2764V76.3175H72.7605V80.9339H72.1554C71.5081 79.8955 69.8994 77.3087 69.5898 76.7942H69.5804C69.6133 77.3654 69.6086 78.0876 69.6086 78.9231V80.9339H69.1489Z" fill="#D9A662"/>
<path id="Vector_20" d="M76.3016 76.7376H74.7866V76.3222H78.2903V76.7376H76.7706V80.9339H76.2969V76.7376H76.3016Z" fill="#D9A662"/>
<path id="Vector_21" d="M80.434 79.6736C80.5653 80.2589 80.9593 80.5941 81.6722 80.5941C82.4555 80.5941 82.7604 80.2117 82.7604 79.7397C82.7604 79.2441 82.5305 78.9514 81.5643 78.7107C80.5465 78.4558 80.1432 78.1159 80.1432 77.4598C80.1432 76.8037 80.6122 76.2561 81.6112 76.2561C82.6103 76.2561 83.0934 76.8839 83.1543 77.4645H82.6759C82.5821 77.0066 82.2913 76.6621 81.5925 76.6621C80.9781 76.6621 80.6403 76.9453 80.6403 77.4267C80.6403 77.9082 80.9218 78.0876 81.7473 78.2906C83.0465 78.6115 83.2528 79.1308 83.2528 79.7019C83.2528 80.41 82.7369 80.9953 81.6488 80.9953C80.4996 80.9953 80.0447 80.3392 79.9556 79.6783H80.434V79.6736Z" fill="#D9A662"/>
</g>
</g>
<defs>
<clipPath id="clip0_3035_146">
<rect width="102" height="81" fill="white"/>
</clipPath>
</defs>
</svg>
