<svg width="107" height="58" viewBox="0 0 107 58" fill="none" xmlns="http://www.w3.org/2000/svg">
<g id="Group 10">
<path id="Vector" d="M11.4206 31.7152C11.3649 31.5718 11.3648 31.4821 11.3648 31.3386C11.3648 31.3685 11.3463 31.4014 11.3091 31.4372V31.6256C11.272 31.6554 11.2534 31.6883 11.2534 31.7242L7.19758 47.2476C7.19758 47.6243 7.48728 47.9561 7.9664 47.9561H14.7298C15.1978 47.9561 15.4986 47.6243 15.4986 47.2476L11.4428 31.7242L11.4206 31.7152ZM15.2424 57.5607V57.0854C17.5377 57.0854 18.0057 57.1302 16.2452 50.2698L16.0112 49.2744C15.7772 48.8439 15.365 48.4224 14.8301 48.4224H7.8327C7.30901 48.4224 6.89674 48.8529 6.65161 49.2744L6.4176 50.2698C4.65711 57.1302 7.00817 57.0854 9.71576 57.0854V57.5607H0.0107422V57.0854C2.54006 57.0854 3.88829 57.1302 5.65993 50.2698L10.4846 31.7152C11.4874 27.9308 10.4288 24.8996 7.59868 24.8996H5.83824V24.4243H18.8971V24.8996H17.8943C17.0697 24.8996 16.4234 24.8996 15.8329 24.9445C13.7716 25.2315 13.7716 26.747 15.0641 31.7152L19.8887 50.2698C21.6492 57.1302 22.2955 57.0854 24.5908 57.0854V57.5607H15.2424Z" fill="white"/>
<path id="Vector_2" d="M26.8862 57.0944C29.1816 57.0944 31.1204 57.1392 31.1204 50.2788V31.7242C31.1204 24.8638 29.1816 24.9086 26.8862 24.9086V24.4333H37.2375V24.9086C35.477 24.9086 34.1176 25.4736 34.7082 26.9892L47.6444 50.5657C48.001 51.0859 48.2907 51.2742 48.5247 51.2742C48.8813 51.2742 49.0595 50.8437 49.0595 50.2788V31.7242C49.0595 24.8638 45.8282 24.9086 43.5329 24.9086V24.4333H53.8842V24.9086C51.5889 24.9086 49.6501 24.8638 49.6501 31.7242V50.2788C49.6501 57.1392 51.5889 57.0944 53.8842 57.0944V57.5696H43.5329V57.0944H43.6555C45.416 57.0944 46.7753 56.5294 46.1848 55.0138L33.2485 31.4821C32.892 30.9619 32.5466 30.7736 32.3126 30.7736C31.9561 30.7736 31.722 31.1503 31.722 31.7242V50.2788C31.722 57.1392 34.9534 57.0944 37.2487 57.0944V57.5696H26.8974V57.0944H26.8862Z" fill="white"/>
<path id="Vector_3" d="M67.5895 31.7152C67.5337 31.5718 67.5338 31.4821 67.5338 31.3386C67.5338 31.3685 67.5152 31.4014 67.4781 31.4372V31.6256C67.4409 31.6554 67.4223 31.6883 67.4223 31.7242L63.3665 47.2476C63.3665 47.6243 63.6562 47.9561 64.1353 47.9561H70.8987C71.3667 47.9561 71.6675 47.6243 71.6675 47.2476L67.6118 31.7242L67.5895 31.7152ZM71.4113 57.5607V57.0854C73.7066 57.0854 74.1746 57.1302 72.4141 50.2698L72.1801 49.2744C71.9461 48.8439 71.5338 48.4224 70.999 48.4224H64.0016C63.4667 48.4224 63.0545 48.8529 62.8205 49.2744L62.5865 50.2698C60.8261 57.1302 63.177 57.0854 65.8846 57.0854V57.5607H56.1797V57.0854C58.709 57.0854 60.0572 57.1302 61.8289 50.2698L66.6535 31.7152C67.6563 27.9308 66.5978 24.8996 63.7676 24.8996H62.0071V24.4243H75.066V24.8996H74.0632C73.2386 24.8996 72.5924 24.8996 72.0018 24.9445C69.9405 25.2315 69.9405 26.747 71.233 31.7152L76.0576 50.2698C77.8181 57.1302 78.4644 57.0854 80.7597 57.0854V57.5607H71.4113Z" fill="white"/>
<path id="Vector_4" d="M92.8825 24.4243V24.8996C90.5872 24.8996 89.1721 24.8548 92.3476 31.7152L94.8213 37.0691L97.1166 31.7152C100.114 24.8548 97.7629 24.8996 95.0553 24.8996V24.4243H104.705V24.8996C102.175 24.8996 100.827 24.8548 97.8186 31.7152L95.1667 37.8224L100.872 50.2698C104.047 57.1302 104.693 57.0854 106.989 57.0854V57.5607H94.8101V57.0854C97.5734 57.0854 100.158 57.1302 96.9829 50.2698L93.2836 42.1718L89.7515 50.2698C86.7542 57.1302 89.1052 57.0854 91.8128 57.0854V57.5607H82.1636V57.0854C84.6929 57.0854 86.0411 57.1302 89.0495 50.2698L92.9271 41.3737L88.459 31.7152C85.2834 24.8548 84.6371 24.8996 82.3418 24.8996V24.4243H92.8714H92.8825Z" fill="white"/>
<path id="Vector_5" d="M58.8203 9.49282V17.5819H107V16.3712H60.3245V9.49282H58.8203Z" fill="#DDAB5B"/>
<path id="Vector_6" d="M57.305 6.54239H55.8008V17.5908H57.305V6.54239Z" fill="#DDAB5B"/>
<path id="Vector_7" d="M54.3636 0.59668H52.8594V17.5819H54.3636V0.59668Z" fill="#DDAB5B"/>
<path id="Vector_8" d="M51.5892 4.75778H50.085V17.5819H51.5892V4.75778Z" fill="#DDAB5B"/>
<path id="Vector_9" d="M47.0653 11.0891V16.3712H0V17.5908H48.5807V11.0891H47.0653Z" fill="#DDAB5B"/>
</g>
</svg>
