<svg width="189" height="150" viewBox="0 0 189 150" fill="none" xmlns="http://www.w3.org/2000/svg">
<g id="_&#208;&#161;&#208;&#187;&#208;&#190;&#208;&#185;_1" clip-path="url(#clip0_3035_823)">
<g id="Group">
<path id="Vector" d="M20.1541 68.6883C20.0498 68.3736 20.0498 68.1638 20.0498 67.8492C20.0498 67.9191 20.015 67.989 19.9455 68.0589V68.4785C19.876 68.5484 19.8412 68.6184 19.8412 68.6883L12.6713 102.963C12.6713 103.802 13.1927 104.536 14.027 104.536H25.977C26.8113 104.536 27.324 103.802 27.324 102.963L20.1541 68.6883ZM26.9069 125.751V124.702C30.9568 124.702 31.7911 124.807 28.6711 109.65L28.254 107.456C27.8368 106.512 27.1068 105.576 26.1769 105.576H13.8098C12.8798 105.576 12.1498 106.52 11.7327 107.456L11.3155 109.65C8.19548 124.807 12.3584 124.702 17.1297 124.702V125.751H0V124.702C4.4671 124.702 6.85708 124.807 9.9771 109.65L18.5028 68.6796C20.2671 60.3229 18.3985 53.6271 13.41 53.6271H10.29V52.5869H33.3555V53.6271H31.5913C30.1399 53.6271 28.9927 53.6271 27.9585 53.732C24.3257 54.3614 24.3257 57.7005 26.6114 68.6796L35.1284 109.65C38.2484 124.807 39.3869 124.702 43.4369 124.702V125.751H26.9156H26.9069Z" fill="white"/>
<path id="Vector_2" d="M47.4868 124.703C51.5368 124.703 54.9696 124.808 54.9696 109.65V68.68C54.9696 53.5226 51.5368 53.6275 47.4868 53.6275V52.5786H65.7724V53.6275C62.6524 53.6275 60.2624 54.8775 61.3053 58.2254L84.1622 110.271C84.788 111.425 85.3094 111.836 85.7179 111.836C86.3436 111.836 86.6565 110.892 86.6565 109.642V68.6712C86.6565 53.5139 80.9379 53.6188 76.888 53.6188V52.5698H95.1735V53.6188C91.1236 53.6188 87.6907 53.5139 87.6907 68.6712V109.642C87.6907 124.799 91.1236 124.694 95.1735 124.694V125.743H76.888V124.694H77.0966C80.2166 124.694 82.6066 123.444 81.5637 120.096L58.7067 68.1555C58.081 67.0016 57.4639 66.5908 57.0468 66.5908C56.421 66.5908 56.0039 67.43 56.0039 68.68V109.65C56.0039 124.808 61.7224 124.703 65.7724 124.703V125.752H47.4868V124.703Z" fill="white"/>
<path id="Vector_3" d="M119.386 68.6888C119.282 68.3741 119.282 68.1643 119.282 67.8496C119.282 67.9196 119.247 67.9895 119.178 68.0594V68.479C119.108 68.5489 119.073 68.6189 119.073 68.6888L111.903 102.963C111.903 103.802 112.425 104.537 113.251 104.537H125.2C126.035 104.537 126.548 103.802 126.548 102.963L119.378 68.6888H119.386ZM126.139 125.752V124.703C130.189 124.703 131.023 124.808 127.903 109.65L127.486 107.456C127.069 106.512 126.339 105.577 125.409 105.577H113.042C112.103 105.577 111.382 106.521 110.965 107.456L110.548 109.65C107.428 124.808 111.591 124.703 116.362 124.703V125.752H99.2148V124.703C103.682 124.703 106.072 124.808 109.192 109.65L117.709 68.6801C119.473 60.3234 117.605 53.6276 112.616 53.6276H109.496V52.5874H132.562V53.6276H130.797C129.346 53.6276 128.199 53.6276 127.165 53.7325C123.532 54.3619 123.532 57.701 125.818 68.6801L134.335 109.65C137.455 124.808 138.593 124.703 142.643 124.703V125.752H126.122H126.139Z" fill="white"/>
<path id="Vector_4" d="M164.066 52.5961V53.6451C160.016 53.6451 157.522 53.5402 163.127 68.6975L167.49 80.507L171.54 68.6975C176.842 53.5402 172.687 53.6451 167.907 53.6451V52.5961H184.95V53.6451C180.483 53.6451 178.093 53.5402 172.792 68.6975L168.116 82.1766L178.197 109.659C183.812 124.816 184.95 124.712 189.009 124.712V125.76H167.499V124.712C172.383 124.712 176.955 124.816 171.34 109.659L164.796 91.7919L158.565 109.659C153.263 124.816 157.418 124.712 162.198 124.712V125.76H145.155V124.712C149.622 124.712 152.012 124.816 157.313 109.659L164.17 90.0087L156.27 68.6888C150.656 53.5315 149.518 53.6364 145.468 53.6364V52.5874H164.066V52.5961Z" fill="white"/>
</g>
<path id="Vector_5" d="M103.769 19.624V37.4999H184.95V34.8163H106.428V19.624H103.769Z" fill="#D9A662"/>
<path id="Vector_6" d="M101.231 13.1118H98.563V37.4912H101.231V13.1118Z" fill="#D9A662"/>
<path id="Vector_7" d="M96.025 0H93.3569V37.4913H96.025V0Z" fill="#D9A662"/>
<path id="Vector_8" d="M90.8195 9.17822H88.1514V37.4999H90.8195V9.17822Z" fill="#D9A662"/>
<path id="Vector_9" d="M82.9455 23.1646V34.8166H0V37.5002H85.6136V23.1646H82.9455Z" fill="#D9A662"/>
<g id="Group_2">
<path id="Vector_10" d="M34.355 141.329H37.2751C39.6303 141.329 41.2468 142.963 41.2468 145.524C41.2468 148.086 39.6738 149.878 37.249 149.878H34.355V141.329ZM35.2241 149.108H37.1534C39.2914 149.108 40.3256 147.587 40.3256 145.559C40.3256 143.767 39.387 142.107 37.1534 142.107H35.2241V149.117V149.108Z" fill="#D9A662"/>
<path id="Vector_11" d="M50.6328 145.769H46.3482V149.1H51.0499L50.9283 149.869H45.4878V141.32H50.8414V142.089H46.3482V144.982H50.6328V145.752V145.769Z" fill="#D9A662"/>
<path id="Vector_12" d="M57.5335 149.878L54.4048 141.329H55.3347L56.9164 145.708C57.3771 146.984 57.8637 148.339 58.0463 149.082H58.0723C58.2548 148.418 58.7937 147.002 59.2543 145.752L60.8969 141.329H61.8007L58.559 149.878H57.5335Z" fill="#D9A662"/>
<path id="Vector_13" d="M70.7436 145.769H66.459V149.1H71.1608L71.0391 149.869H65.5986V141.32H70.9522V142.089H66.459V144.982H70.7436V145.752V145.769Z" fill="#D9A662"/>
<path id="Vector_14" d="M75.2021 141.329H76.0712V149.1H80.5731L80.434 149.869H75.2021V141.32V141.329Z" fill="#D9A662"/>
<path id="Vector_15" d="M91.3146 145.55C91.3146 147.893 90.0458 150 87.3951 150C84.9529 150 83.5537 148.059 83.5537 145.603C83.5537 143.147 84.9356 141.206 87.482 141.206C89.8372 141.206 91.306 143.033 91.306 145.55H91.3146ZM84.4749 145.568C84.4749 147.482 85.4918 149.231 87.4385 149.231C89.533 149.231 90.3934 147.5 90.3934 145.568C90.3934 143.636 89.42 141.984 87.4559 141.984C85.3875 141.984 84.4836 143.689 84.4836 145.568H84.4749Z" fill="#D9A662"/>
<path id="Vector_16" d="M95.5562 141.329H98.6762C100.275 141.329 101.37 142.22 101.37 143.759C101.37 145.297 100.249 146.25 98.598 146.25H96.4339V149.878H95.5562V141.329ZM96.4339 145.481H98.6066C99.8842 145.481 100.458 144.825 100.458 143.785C100.458 142.684 99.7278 142.098 98.6501 142.098H96.4339V145.489V145.481Z" fill="#D9A662"/>
<path id="Vector_17" d="M112.842 146.075C112.842 144.441 112.859 142.832 112.894 141.958H112.851C112.503 143.217 110.93 147.177 109.905 149.878H109.096C108.314 147.745 106.698 143.313 106.307 141.949H106.272C106.333 142.928 106.359 144.878 106.359 146.346V149.878H105.524V141.329H106.819C107.897 144.135 109.235 147.78 109.54 148.802H109.566C109.766 148.086 111.321 144.056 112.425 141.329H113.694V149.878H112.833V146.075H112.842Z" fill="#D9A662"/>
<path id="Vector_18" d="M123.671 145.769H119.386V149.1H124.088L123.966 149.869H118.526V141.32H123.879V142.089H119.386V144.982H123.671V145.752V145.769Z" fill="#D9A662"/>
<path id="Vector_19" d="M128.129 149.878V141.329H129.337C130.615 143.357 133.518 147.893 134.022 148.82H134.039C133.961 147.649 133.97 146.346 133.97 144.956V141.329H134.821V149.878H133.7C132.501 147.954 129.52 143.164 128.946 142.211H128.929C128.99 143.269 128.981 144.607 128.981 146.154V149.878H128.129Z" fill="#D9A662"/>
<path id="Vector_20" d="M141.383 142.107H138.576V141.337H145.068V142.107H142.252V149.878H141.374V142.107H141.383Z" fill="#D9A662"/>
<path id="Vector_21" d="M149.039 147.544C149.283 148.627 150.013 149.248 151.334 149.248C152.785 149.248 153.35 148.54 153.35 147.666C153.35 146.748 152.924 146.206 151.134 145.76C149.248 145.288 148.5 144.659 148.5 143.444C148.5 142.229 149.37 141.215 151.221 141.215C153.072 141.215 153.967 142.377 154.08 143.453H153.194C153.02 142.605 152.481 141.967 151.186 141.967C150.047 141.967 149.422 142.491 149.422 143.383C149.422 144.274 149.943 144.606 151.473 144.982C153.88 145.577 154.263 146.538 154.263 147.596C154.263 148.907 153.307 149.991 151.29 149.991C149.161 149.991 148.318 148.776 148.153 147.552H149.039V147.544Z" fill="#D9A662"/>
</g>
</g>
<defs>
<clipPath id="clip0_3035_823">
<rect width="189" height="150" fill="white"/>
</clipPath>
</defs>
</svg>
