<svg width="80" height="44" viewBox="0 0 80 44" fill="none" xmlns="http://www.w3.org/2000/svg">
<g id="Group 3237">
<path id="Vector" d="M8.53854 23.8985C8.49689 23.7913 8.49684 23.7242 8.49684 23.6169C8.49684 23.6393 8.48297 23.6639 8.4552 23.6907V23.8315C8.42743 23.8538 8.41356 23.8784 8.41356 23.9052L5.38115 35.5115C5.38115 35.7932 5.59775 36.0412 5.95598 36.0412H11.0127C11.3626 36.0412 11.5876 35.7932 11.5876 35.5115L8.55517 23.9052L8.53854 23.8985ZM11.396 43.2223V42.8669C13.1121 42.8669 13.462 42.9004 12.1457 37.7711L11.9708 37.0269C11.7959 36.705 11.4876 36.3899 11.0877 36.3899H5.85601C5.46447 36.3899 5.15623 36.7117 4.97296 37.0269L4.79799 37.7711C3.48173 42.9004 5.23954 42.8669 7.26391 42.8669V43.2223H0.0078125V42.8669C1.89889 42.8669 2.90692 42.9004 4.23151 37.7711L7.83873 23.8985C8.5885 21.069 7.79706 18.8028 5.68105 18.8028H4.36483V18.4474H14.1284V18.8028H13.3787C12.7622 18.8028 12.279 18.8028 11.8375 18.8363C10.2963 19.0509 10.2963 20.184 11.2627 23.8985L14.8699 37.7711C16.1861 42.9004 16.6693 42.8669 18.3854 42.8669V43.2223H11.396Z" fill="white"/>
<path id="Vector_2" d="M20.1021 42.8736C21.8182 42.8736 23.2678 42.9072 23.2678 37.7779V23.9053C23.2678 18.776 21.8182 18.8095 20.1021 18.8095V18.4542H27.8413V18.8095C26.5251 18.8095 25.5087 19.2319 25.9503 20.3651L35.6222 37.9924C35.8888 38.3813 36.1055 38.5221 36.2804 38.5221C36.547 38.5221 36.6803 38.2003 36.6803 37.7779V23.9053C36.6803 18.776 34.2643 18.8095 32.5482 18.8095V18.4542H40.2875V18.8095C38.5714 18.8095 37.1218 18.776 37.1218 23.9053V37.7779C37.1218 42.9072 38.5714 42.8736 40.2875 42.8736V43.229H32.5482V42.8736H32.6399C33.9561 42.8736 34.9724 42.4512 34.5309 41.3181L24.8589 23.7243C24.5923 23.3354 24.3341 23.1946 24.1592 23.1946C23.8926 23.1946 23.7176 23.4762 23.7176 23.9053V37.7779C23.7176 42.9072 26.1336 42.8736 27.8497 42.8736V43.229H20.1104V42.8736H20.1021Z" fill="white"/>
<path id="Vector_3" d="M50.5341 23.8985C50.4924 23.7913 50.4924 23.7242 50.4924 23.6169C50.4924 23.6393 50.4786 23.6639 50.4508 23.6907V23.8315C50.423 23.8538 50.4091 23.8784 50.4091 23.9052L47.3768 35.5115C47.3768 35.7932 47.5934 36.0412 47.9516 36.0412H53.0083C53.3582 36.0412 53.5831 35.7932 53.5831 35.5115L50.5508 23.9052L50.5341 23.8985ZM53.3915 43.2223V42.8669C55.1077 42.8669 55.4576 42.9004 54.1413 37.7711L53.9664 37.0269C53.7914 36.705 53.4832 36.3899 53.0833 36.3899H47.8516C47.4517 36.3899 47.1435 36.7117 46.9685 37.0269L46.7936 37.7711C45.4773 42.9004 47.2351 42.8669 49.2595 42.8669V43.2223H42.0034V42.8669C43.8945 42.8669 44.9025 42.9004 46.2271 37.7711L49.8343 23.8985C50.5841 21.069 49.7927 18.8028 47.6767 18.8028H46.3604V18.4474H56.124V18.8028H55.3743C54.7578 18.8028 54.2746 18.8028 53.8331 18.8363C52.2919 19.0509 52.2919 20.184 53.2583 23.8985L56.8654 37.7711C58.1817 42.9004 58.6649 42.8669 60.381 42.8669V43.2223H53.3915Z" fill="white"/>
<path id="Vector_4" d="M69.4448 18.4474V18.8028C67.7287 18.8028 66.6707 18.7692 69.0449 23.8985L70.8944 27.9014L72.6105 23.8985C74.8515 18.7692 73.0937 18.8028 71.0693 18.8028V18.4474H78.2837V18.8028C76.3927 18.8028 75.3847 18.7692 73.1354 23.8985L71.1526 28.4646L75.418 37.7711C77.7922 42.9004 78.2754 42.8669 79.9915 42.8669V43.2223H70.886V42.8669C72.9521 42.8669 74.8848 42.9004 72.5105 37.7711L69.7447 31.7165L67.1039 37.7711C64.8629 42.9004 66.6207 42.8669 68.6451 42.8669V43.2223H61.4307V42.8669C63.3217 42.8669 64.3298 42.9004 66.5791 37.7711L69.4781 31.1198L66.1375 23.8985C63.7632 18.7692 63.2801 18.8028 61.5639 18.8028V18.4474H69.4365H69.4448Z" fill="white"/>
<path id="Vector_5" d="M43.978 7.28373V13.3316H80.0002V12.4264H45.1027V7.28373H43.978Z" fill="#DDAB5B"/>
<path id="Vector_6" d="M42.8449 5.07779H41.7202V13.3383H42.8449V5.07779Z" fill="#DDAB5B"/>
<path id="Vector_7" d="M40.6457 0.632324H39.521V13.3315H40.6457V0.632324Z" fill="#DDAB5B"/>
<path id="Vector_8" d="M38.5715 3.74345H37.4468V13.3316H38.5715V3.74345Z" fill="#DDAB5B"/>
<path id="Vector_9" d="M35.1891 8.47714V12.4264H0V13.3382H36.322V8.47714H35.1891Z" fill="#DDAB5B"/>
</g>
</svg>
