<?xml version="1.0" standalone="no"?>
<!DOCTYPE svg PUBLIC "-//W3C//DTD SVG 20010904//EN"
 "http://www.w3.org/TR/2001/REC-SVG-20010904/DTD/svg10.dtd">
<svg version="1.0" xmlns="http://www.w3.org/2000/svg"
 width="744.000000pt" height="744.000000pt" viewBox="0 0 744.000000 744.000000"
 preserveAspectRatio="xMidYMid meet">
<metadata>
Created by potrace 1.14, written by Peter Selinger 2001-2017
</metadata>
<g transform="translate(0.000000,744.000000) scale(0.100000,-0.100000)"
fill="#000000" stroke="none">
<path d="M3493 7282 c-21 -3 -23 -9 -23 -70 -1 -82 -1 -6889 0 -6987 l0 -70
52 2 c46 2 172 3 233 2 11 0 57 1 103 3 45 2 82 -1 82 -5 0 -4 8 -3 18 2 18
10 19 121 19 3561 0 2957 -2 3552 -14 3561 -9 8 -13 8 -13 1 0 -7 -10 -8 -29
-2 -15 4 -33 5 -39 1 -6 -3 -28 -5 -49 -3 -21 1 -67 2 -103 2 -36 -1 -71 -1
-77 0 -15 0 -38 0 -55 0 -7 -1 -29 1 -48 2 -19 2 -45 2 -57 0z"/>
<path d="M2483 5532 c-6 -5 -9 -938 -9 -2687 l1 -2680 60 -2 c113 -3 160 -3
305 0 l144 2 0 2685 0 2685 -245 2 c-135 1 -250 -2 -256 -5z"/>
<path d="M4464 2478 l1 -2313 25 -2 c50 -3 128 -3 272 -1 82 2 148 0 148 -3 0
-3 14 -4 30 -1 l30 4 0 162 c1 270 1 4409 0 4439 l0 27 -254 0 -254 0 2 -2312z"/>
<path d="M5461 3550 c-4 -3 -6 -765 -6 -1693 0 -1802 -2 -1722 46 -1697 9 5
19 7 22 4 3 -3 32 -6 64 -5 131 3 153 2 163 -4 5 -3 10 -1 10 5 0 6 5 8 11 4
10 -6 45 -7 122 -3 6 0 54 -1 105 -2 51 -1 95 1 98 4 3 3 17 2 30 -3 13 -5 26
-6 29 0 3 5 18 5 33 1 15 -4 38 -5 52 -1 14 4 35 3 47 -1 13 -5 25 -4 28 2 4
5 11 7 16 3 5 -3 32 -5 59 -5 28 1 72 1 100 2 27 0 54 -2 60 -6 5 -3 10 0 10
7 0 8 3 9 8 3 8 -11 122 -14 122 -3 0 4 13 3 29 -2 16 -4 32 -6 35 -2 8 8 102
5 116 -3 5 -3 10 -2 10 4 0 7 9 7 23 3 12 -5 34 -6 48 -3 l26 6 0 253 0 252
-500 0 c-275 0 -502 2 -506 5 -3 4 -6 653 -6 1443 l0 1437 -248 0 c-137 0
-252 -2 -256 -5z"/>
<path d="M1483 2878 c-2 -5 -2 -8 0 -8 3 0 1 -16 -3 -35 -4 -19 -4 -37 0 -40
5 -3 5 -18 0 -34 -4 -16 -6 -31 -4 -34 7 -7 8 -167 1 -173 -4 -4 -2 -13 4 -21
8 -9 8 -13 1 -13 -7 0 -8 -10 -2 -29 4 -16 6 -32 3 -35 -3 -3 -5 -31 -3 -63 2
-66 3 -86 1 -125 -2 -63 -3 -84 -2 -98 1 -8 1 -26 0 -40 0 -14 0 -32 0 -40 1
-8 1 -26 0 -40 -1 -32 -1 -59 0 -90 1 -14 2 -61 2 -104 0 -44 2 -83 5 -87 2
-4 0 -11 -6 -14 -8 -5 -7 -11 1 -21 7 -9 8 -14 1 -14 -7 0 -8 -10 -3 -27 4
-16 5 -39 1 -53 -3 -13 -3 -46 0 -72 4 -27 3 -48 -1 -48 -4 0 -4 -13 1 -29 4
-15 5 -33 1 -40 -4 -6 -5 -33 -1 -59 3 -27 3 -60 -1 -74 -4 -14 -3 -31 1 -38
4 -7 4 -25 0 -40 -4 -15 -4 -33 0 -40 4 -7 4 -25 0 -40 -4 -15 -4 -33 0 -40 4
-7 4 -25 0 -40 -4 -15 -4 -33 0 -40 4 -7 4 -25 0 -40 -4 -15 -4 -33 0 -40 4
-7 4 -25 0 -40 -4 -15 -4 -33 0 -40 4 -7 4 -25 0 -40 -4 -15 -4 -33 0 -41 5
-7 6 -17 3 -22 -3 -5 -5 -31 -4 -58 l1 -49 -508 -2 -507 -3 -2 -252 c-1 -252
-1 -253 20 -254 12 -1 27 0 32 1 20 5 105 1 115 -5 5 -3 10 -1 10 5 0 6 5 8
11 4 10 -6 45 -7 122 -3 6 0 54 -1 105 -2 51 -1 95 1 98 4 3 3 17 2 30 -3 13
-5 26 -6 29 0 3 5 18 5 33 1 15 -4 38 -5 52 -1 14 4 35 3 47 -1 13 -5 25 -4
28 2 4 5 11 7 16 3 5 -3 32 -5 59 -5 28 1 72 1 100 2 27 0 54 -2 60 -6 5 -3
10 0 10 7 0 8 3 9 8 3 8 -11 122 -14 122 -3 0 4 13 3 29 -2 16 -4 32 -6 35 -2
8 8 102 5 116 -3 5 -3 10 -1 10 5 0 6 5 8 11 4 6 -4 34 -6 63 -5 28 1 75 2
104 2 l52 1 0 1359 c0 1080 -3 1359 -12 1360 -89 5 -491 2 -495 -3z"/>
</g>
</svg>
